<svg xmlns="http://www.w3.org/2000/svg" width="700pt" height="700pt" version="1.1" viewBox="0 0 700 700">
 <g>
  <path d="m618.33 280h-536.67c-6.4375 0-11.664-5.2266-11.664-11.668 0-6.4375 5.2266-11.664 11.668-11.664h536.67c6.4414 0 11.668 5.2266 11.668 11.668-0.003906 6.4375-5.2305 11.664-11.672 11.664z" fill="#acadb9"/>
  <path d="m618.33 280c-2.9883 0-5.9727-1.1445-8.2617-3.4062l-186.67-186.67c-4.5508-4.5508-4.5508-11.945 0-16.496 4.5508-4.5508 11.945-4.5508 16.496 0l186.67 186.67c4.5508 4.5508 4.5508 11.945 0 16.496-2.2578 2.2617-5.2461 3.4062-8.2344 3.4062z" fill="#acadb9"/>
  <path d="m431.67 466.67c-2.9883 0-5.9727-1.1445-8.2617-3.4062-4.5508-4.5508-4.5508-11.945 0-16.496l186.67-186.67c4.5508-4.5508 11.945-4.5508 16.496 0 4.5508 4.5508 4.5508 11.945 0 16.496l-186.67 186.67c-2.2617 2.2617-5.25 3.4062-8.2344 3.4062z" fill="#acadb9"/>
 </g>
</svg>