<?xml version="1.0"?>
<svg width="600" height="147.3" xmlns="http://www.w3.org/2000/svg" xmlns:svg="http://www.w3.org/2000/svg">
 <g class="layer">
  <title>Layer 1</title>
  <path d="m151.2,42.7l60.7,0l0,11.3l-23.9,0l0,63.7l-13.1,0l0,-63.7l-23.8,0l0.1,-11.3zm58.1,20.7l11.2,0l0,10.5l0.2,0c0.4,-1.5 1.1,-2.9 2.1,-4.3s2.2,-2.7 3.7,-3.8c1.4,-1.2 3,-2.1 4.8,-2.8c1.7,-0.7 3.5,-1.1 5.3,-1.1c1.4,0 2.4,0.1 2.9,0.1c0.5,0.1 1.1,0.2 1.6,0.2l0,11.5c-0.8,-0.2 -1.7,-0.3 -2.6,-0.4s-1.7,-0.2 -2.6,-0.2c-2,0 -3.9,0.4 -5.7,1.2s-3.3,2 -4.7,3.5c-1.3,1.6 -2.4,3.5 -3.2,5.8s-1.2,5 -1.2,8l0,25.8l-12,0l0.2,-54zm86.8,54.3l-11.8,0l0,-7.6l-0.2,0c-1.5,2.8 -3.7,4.9 -6.6,6.6s-5.9,2.5 -8.9,2.5c-7.1,0 -12.3,-1.7 -15.5,-5.3c-3.2,-3.5 -4.8,-8.9 -4.8,-16l0,-34.5l12,0l0,33.3c0,4.8 0.9,8.2 2.8,10.1c1.8,2 4.4,3 7.7,3c2.5,0 4.6,-0.4 6.3,-1.2s3.1,-1.8 4.1,-3.1c1.1,-1.3 1.8,-2.9 2.3,-4.7s0.7,-3.8 0.7,-5.9l0,-31.5l12,0l0,54.3l-0.1,0zm20.4,-17.4c0.4,3.5 1.7,5.9 4,7.4c2.3,1.4 5.1,2.1 8.3,2.1c1.1,0 2.4,-0.1 3.8,-0.3s2.8,-0.5 4,-1c1.3,-0.5 2.3,-1.2 3.1,-2.2s1.2,-2.2 1.1,-3.7s-0.6,-2.8 -1.7,-3.8s-2.4,-1.7 -4,-2.4c-1.6,-0.6 -3.5,-1.1 -5.6,-1.5s-4.2,-0.9 -6.4,-1.4s-4.4,-1.1 -6.5,-1.8s-3.9,-1.6 -5.6,-2.9c-1.6,-1.2 -3,-2.7 -3.9,-4.6c-1,-1.9 -1.5,-4.1 -1.5,-6.9c0,-3 0.7,-5.4 2.2,-7.4c1.4,-2 3.3,-3.6 5.5,-4.8s4.7,-2.1 7.4,-2.6s5.3,-0.7 7.7,-0.7c2.8,0 5.5,0.3 8,0.9s4.9,1.5 6.9,2.9c2.1,1.3 3.8,3.1 5.1,5.2c1.4,2.1 2.2,4.7 2.6,7.7l-12.5,0c-0.6,-2.9 -1.9,-4.8 -3.9,-5.8c-2.1,-1 -4.4,-1.5 -7.1,-1.5c-0.8,0 -1.9,0.1 -3,0.2c-1.2,0.2 -2.2,0.4 -3.3,0.8c-1,0.4 -1.9,1 -2.6,1.7s-1.1,1.7 -1.1,2.9c0,1.5 0.5,2.6 1.5,3.5s2.3,1.6 4,2.3c1.6,0.6 3.5,1.1 5.6,1.5s4.3,0.9 6.5,1.4s4.3,1.1 6.4,1.8s4,1.6 5.6,2.9c1.6,1.2 3,2.7 4,4.5s1.5,4.1 1.5,6.7c0,3.2 -0.7,5.9 -2.2,8.2c-1.5,2.2 -3.4,4.1 -5.7,5.5s-5,2.4 -7.8,3.1c-2.9,0.6 -5.7,1 -8.5,1c-3.4,0 -6.6,-0.4 -9.5,-1.2s-5.5,-2 -7.6,-3.5c-2.1,-1.6 -3.8,-3.5 -5,-5.9c-1.2,-2.3 -1.9,-5.1 -2,-8.4l12.1,0l0,0.1l0.1,0zm39.5,-36.9l9.1,0l0,-16.4l12,0l0,16.3l10.8,0l0,8.9l-10.8,0l0,29c0,1.3 0.1,2.3 0.2,3.3c0.1,0.9 0.4,1.7 0.7,2.3c0.4,0.6 1,1.1 1.7,1.4c0.8,0.3 1.8,0.5 3.2,0.5c0.8,0 1.7,0 2.5,-0.1s1.7,-0.2 2.5,-0.4l0,9.3c-1.3,0.2 -2.6,0.3 -3.9,0.4c-1.3,0.2 -2.5,0.2 -3.9,0.2c-3.2,0 -5.7,-0.3 -7.6,-0.9s-3.4,-1.5 -4.5,-2.6c-1.1,-1.2 -1.8,-2.6 -2.2,-4.3s-0.6,-3.8 -0.7,-6l0,-32l-9.1,0l0,-9.1l0,0.2zm40.3,0l11.3,0l0,7.4l0.2,0c1.7,-3.2 4,-5.4 7,-6.8s6.2,-2.1 9.8,-2.1c4.3,0 8,0.7 11.2,2.3c3.2,1.5 5.8,3.5 7.9,6.2c2.1,2.6 3.7,5.7 4.7,9.2s1.6,7.3 1.6,11.2c0,3.7 -0.5,7.2 -1.4,10.6c-1,3.4 -2.4,6.5 -4.3,9.1s-4.3,4.7 -7.3,6.3s-6.4,2.4 -10.4,2.4c-1.7,0 -3.5,-0.2 -5.2,-0.5s-3.4,-0.8 -5,-1.5s-3.1,-1.6 -4.4,-2.7c-1.4,-1.1 -2.5,-2.4 -3.4,-3.8l-0.2,0l0,27.1l-12,0l0,-74.4l-0.1,0zm41.9,27.2c0,-2.4 -0.3,-4.8 -1,-7.1c-0.6,-2.3 -1.6,-4.3 -2.9,-6.1s-2.9,-3.2 -4.7,-4.3c-1.9,-1.1 -4.1,-1.6 -6.5,-1.6c-5,0 -8.8,1.7 -11.4,5.2c-2.5,3.5 -3.8,8.2 -3.8,14c0,2.8 0.3,5.3 1,7.6s1.6,4.3 3,6c1.3,1.7 2.9,3 4.8,4s4,1.5 6.5,1.5c2.8,0 5,-0.6 6.9,-1.7s3.4,-2.6 4.7,-4.3c1.2,-1.8 2.1,-3.8 2.6,-6.1c0.5,-2.4 0.8,-4.7 0.8,-7.1zm21.1,-47.9l12,0l0,11.3l-12,0l0,-11.3zm0,20.7l12,0l0,54.3l-12,0l0,-54.3zm22.7,-20.7l12,0l0,75l-12,0l0,-75zm48.6,76.5c-4.3,0 -8.2,-0.7 -11.6,-2.2s-6.2,-3.4 -8.6,-5.9c-2.3,-2.5 -4.1,-5.6 -5.3,-9.1s-1.9,-7.4 -1.9,-11.5s0.6,-7.9 1.9,-11.4c1.2,-3.5 3,-6.5 5.3,-9.1c2.3,-2.5 5.2,-4.5 8.6,-5.9s7.3,-2.2 11.6,-2.2s8.2,0.7 11.6,2.2c3.4,1.4 6.2,3.4 8.6,5.9c2.3,2.5 4.1,5.6 5.3,9.1s1.9,7.3 1.9,11.4c0,4.2 -0.6,8 -1.9,11.5s-3,6.5 -5.3,9.1c-2.3,2.5 -5.2,4.5 -8.6,5.9s-7.2,2.2 -11.6,2.2zm0,-9.5c2.6,0 5,-0.6 6.9,-1.7c2,-1.1 3.5,-2.6 4.8,-4.4s2.2,-3.9 2.8,-6.1c0.6,-2.3 0.9,-4.6 0.9,-7c0,-2.3 -0.3,-4.6 -0.9,-6.9s-1.5,-4.3 -2.8,-6.1s-2.9,-3.2 -4.8,-4.3c-2,-1.1 -4.3,-1.7 -6.9,-1.7s-5,0.6 -6.9,1.7c-2,1.1 -3.5,2.6 -4.8,4.3c-1.3,1.8 -2.2,3.8 -2.8,6.1s-0.9,4.6 -0.9,6.9c0,2.4 0.3,4.7 0.9,7s1.5,4.3 2.8,6.1s2.9,3.3 4.8,4.4c2,1.2 4.3,1.7 6.9,1.7zm31,-46.3l9.1,0l0,-16.4l12,0l0,16.3l10.8,0l0,8.9l-10.8,0l0,29c0,1.3 0.1,2.3 0.2,3.3c0.1,0.9 0.4,1.7 0.7,2.3c0.4,0.6 1,1.1 1.7,1.4c0.8,0.3 1.8,0.5 3.2,0.5c0.8,0 1.7,0 2.5,-0.1s1.7,-0.2 2.5,-0.4l0,9.3c-1.3,0.2 -2.6,0.3 -3.9,0.4c-1.3,0.2 -2.5,0.2 -3.9,0.2c-3.2,0 -5.7,-0.3 -7.6,-0.9s-3.4,-1.5 -4.5,-2.6c-1.1,-1.2 -1.8,-2.6 -2.2,-4.3s-0.6,-3.8 -0.7,-6l0,-32l-9.1,0l0,-9.1l0,0.2z" fill="#ffffff" id="svg_1"/>
  <path d="m148.2,56.7l-54.9,0l-16.9,-52.2l-17,52.2l-54.9,-0.1l44.4,32.3l-17,52.2l44.4,-32.3l44.4,32.3l-16.9,-52.2l44.4,-32.2z" fill="#00b67a" id="svg_2" transform="matrix(1 0 0 1 0 0)"/>
  <path d="m123.6,344.7l-3.8,-11.8l-27.4,19.9l31.2,-8.1z" fill="#005128" id="svg_3"/>
 </g>
</svg>