<?xml version="1.0"?>
<svg width="24" height="24" xmlns="http://www.w3.org/2000/svg" xmlns:svg="http://www.w3.org/2000/svg" enable-background="new 0 0 24 24">
 <g class="layer">
  <title>Layer 1</title>
  <path class="color000000 svgShape" d="m22,10.1c0.1,-0.5 -0.3,-1.1 -0.8,-1.1l-5.7,-0.8l-2.6,-5.2c-0.1,-0.2 -0.2,-0.3 -0.4,-0.4c-0.5,-0.3 -1.1,-0.1 -1.4,0.4l-2.5,5.2l-5.7,0.8c-0.3,0 -0.5,0.1 -0.6,0.3c-0.4,0.4 -0.4,1 0,1.4l4.1,4l-1,5.7c0,0.2 0,0.4 0.1,0.6c0.3,0.5 0.9,0.7 1.4,0.4l5.1,-2.7l5.1,2.7c0.1,0.1 0.3,0.1 0.5,0.1l0,0c0.1,0 0.1,0 0.2,0c0.5,-0.1 0.9,-0.6 0.8,-1.2l-1,-5.7l4.1,-4c0.2,-0.1 0.3,-0.3 0.3,-0.5z" fill="#01adfb" id="svg_1"/>
 </g>
</svg>